<?xml version="1.0" encoding="utf-8"?>
<!-- Generator: Adobe Illustrator 26.5.0, SVG Export Plug-In . SVG Version: 6.00 Build 0)  -->
<svg version="1.1" id="Capa_1" xmlns="http://www.w3.org/2000/svg" xmlns:xlink="http://www.w3.org/1999/xlink" x="0px" y="0px"
	 viewBox="0 0 75 20" style="enable-background:new 0 0 75 20;" xml:space="preserve">
<style type="text/css">
	.st0{fill:#FFFFFF;}
</style>
<g id="Capa_1_00000079470916097024514690000011652569694141411456_">
</g>
<g id="Capa_2_00000011004670784244757230000009358418938896692893_">
	<g>
		<g>
			<path class="st0" d="M8.9,6.7c0,0.6-0.1,1-0.3,1.4S8.2,8.8,7.8,9C7.5,9.3,7.1,9.4,6.7,9.6S5.7,9.7,5.2,9.7v1.9H2.7v-8h2.6
				c0.5,0,1,0.1,1.4,0.2c0.4,0.1,0.8,0.3,1.2,0.5c0.3,0.2,0.6,0.5,0.8,0.9C8.8,5.6,8.9,6.1,8.9,6.7z M5.2,7.6h0.1
				c0.3,0,0.6-0.1,0.7-0.2C6.2,7.2,6.3,7,6.3,6.7S6.2,6.2,6.1,6C5.9,5.9,5.7,5.8,5.3,5.8H5.2V7.6z"/>
			<path class="st0" d="M12.8,11.8c-0.5,0-1-0.1-1.4-0.2c-0.4-0.1-0.8-0.3-1-0.6c-0.3-0.3-0.5-0.6-0.7-1S9.4,9.2,9.4,8.7V3.6H12v5
				c0,0.3,0.1,0.5,0.2,0.6c0.1,0.1,0.3,0.2,0.6,0.2s0.5-0.1,0.6-0.2c0.1-0.1,0.2-0.4,0.2-0.6v-5h2.6v5.1c0,0.5-0.1,1-0.2,1.4
				c-0.2,0.4-0.4,0.7-0.7,1s-0.6,0.4-1.1,0.6C13.7,11.8,13.3,11.8,12.8,11.8z"/>
			<path class="st0" d="M16.9,3.6H19l2.2,3.1V3.6h2.5v8h-2.1l-2.2-3.1v3.1h-2.5V3.6z"/>
			<path class="st0" d="M25.6,5.7h-1.5V3.6h5.6v2.1h-1.5v5.9h-2.6V5.7z"/>
			<path class="st0" d="M30,7.6c0-0.6,0.1-1.1,0.3-1.6s0.5-1,0.9-1.3S32,4,32.5,3.8s1.1-0.3,1.6-0.3s1.1,0.1,1.6,0.3
				c0.5,0.2,1,0.5,1.3,0.9S37.8,5.5,38,6s0.3,1.1,0.3,1.6c0,0.6-0.1,1.1-0.3,1.6c-0.2,0.5-0.5,1-0.9,1.3s-0.8,0.7-1.3,0.9
				s-1.1,0.3-1.6,0.3s-1.1-0.1-1.6-0.3c-0.5-0.2-1-0.5-1.3-0.9s-0.7-0.8-0.9-1.3C30.1,8.8,30,8.2,30,7.6z M32.5,7.6
				c0,0.2,0,0.5,0.1,0.7s0.2,0.4,0.4,0.5s0.3,0.3,0.5,0.4c0.2,0.1,0.4,0.1,0.7,0.1s0.5,0,0.7-0.1s0.4-0.2,0.5-0.4
				c0.2-0.1,0.3-0.3,0.4-0.5s0.1-0.4,0.1-0.7s0-0.4-0.1-0.7s-0.2-0.4-0.4-0.5c-0.2-0.2-0.3-0.3-0.5-0.4S34.4,6,34.1,6
				s-0.4,0-0.6,0.1S33.1,6.3,33,6.5c-0.2,0.2-0.3,0.3-0.4,0.5C32.5,7.2,32.5,7.4,32.5,7.6z"/>
			<path class="st0" d="M39,3.6h2.1l2.2,3.1V3.6h2.5v8h-2.1l-2.2-3.1v3.1H39C39,11.6,39,3.6,39,3.6z"/>
			<path class="st0" d="M46.7,3.6h4.7v2.1h-2.2v0.9h2.1v2h-2.1v0.9h2.2v2.1h-4.8C46.7,11.6,46.7,3.6,46.7,3.6z"/>
			<path class="st0" d="M52.2,3.6h2.1l2.1,3.1l2.1-3.1h2.1v8H58V8.7l-1.6,2.4l-1.6-2.4v2.9h-2.6V3.6z"/>
			<path class="st0" d="M61.2,7.6c0-0.6,0.1-1.1,0.3-1.6s0.5-1,0.9-1.3s0.8-0.7,1.3-0.9c0.5-0.2,1.1-0.3,1.6-0.3s1.1,0.1,1.6,0.3
				c0.5,0.2,1,0.5,1.3,0.9s0.7,0.8,0.9,1.3s0.3,1.1,0.3,1.6c0,0.6-0.1,1.1-0.3,1.6c-0.2,0.5-0.5,1-0.9,1.3c-0.4,0.4-0.8,0.7-1.3,0.9
				c-0.5,0.2-1.1,0.3-1.6,0.3s-1.1-0.1-1.6-0.3s-1-0.5-1.3-0.9s-0.7-0.8-0.9-1.3C61.3,8.8,61.2,8.2,61.2,7.6z M63.8,7.6
				c0,0.2,0,0.5,0.1,0.7s0.2,0.4,0.4,0.5s0.3,0.3,0.5,0.4s0.4,0.1,0.7,0.1s0.4,0,0.7-0.1c0.2-0.1,0.4-0.2,0.5-0.4s0.3-0.3,0.4-0.5
				c0.1-0.2,0.1-0.4,0.1-0.7s0-0.4-0.1-0.7s-0.2-0.4-0.4-0.5c-0.2-0.2-0.3-0.3-0.5-0.4S65.7,6,65.4,6S65,6,64.8,6.1
				s-0.4,0.2-0.5,0.4S64,6.8,63.9,7C63.8,7.2,63.8,7.4,63.8,7.6z"/>
		</g>
		<path class="st0" d="M72.2,6.7c-0.3-2.7-2.3-4.9-4.8-5.6c-2.4-0.7-5-0.1-6.7,1.6c0.5,0.1,0.8,0.5,0.8,1v0.7
			c0.6-0.7,1.5-1.3,2.5-1.6c3-0.8,5.9,1,6.5,4c0.2,1.1,0,2-0.4,3c-1.2,2.7-2.8,5.1-4.7,7.4c-0.7-0.9-1.3-1.7-1.9-2.6
			c-0.7-1.1-1.4-2.1-2-3.3v0.4c0,0.6-0.5,1-1,1h-0.2c1.2,2.2,2.7,4.1,4.2,6.1c0.5,0.6,1.2,0.6,1.7,0c1.9-2.4,3.8-5,5.1-7.8
			c0.5-1.1,0.9-2.2,0.9-3.4C72.3,7.3,72.3,7,72.2,6.7z"/>
		<path class="st0" d="M64.6,7.6c0,0.1,0,0.2,0.1,0.3c0,0.1,0.1,0.2,0.2,0.3s0.2,0.1,0.3,0.2s0.2,0.1,0.3,0.1s0.2,0,0.3-0.1
			c0.1,0,0.2-0.1,0.3-0.2c0.1-0.1,0.1-0.2,0.2-0.3s0.1-0.2,0.1-0.3s0-0.2-0.1-0.3c0-0.1-0.1-0.2-0.2-0.3s-0.2-0.1-0.3-0.2
			s-0.2-0.1-0.3-0.1s-0.2,0-0.3,0.1S64.9,7,64.8,7c-0.1,0.1-0.1,0.2-0.2,0.3S64.6,7.5,64.6,7.6z"/>
	</g>
</g>
</svg>
