<?xml version="1.0" encoding="utf-8"?>
<!-- Generator: Adobe Illustrator 26.5.0, SVG Export Plug-In . SVG Version: 6.00 Build 0)  -->
<svg version="1.1" id="Capa_1" xmlns="http://www.w3.org/2000/svg" xmlns:xlink="http://www.w3.org/1999/xlink" x="0px" y="0px"
	 viewBox="0 0 75 20" style="enable-background:new 0 0 75 20;" xml:space="preserve">
<style type="text/css">
	.st0{fill:#6C6B6C;}
	.st1{fill:#333333;}
	.st2{fill:#FF6633;}
	.st3{fill:#CC0000;}
</style>
<g id="Capa_1_00000079470916097024514690000011652569694141411456_">
</g>
<g id="Capa_2_00000011004670784244757230000009358418938896692893_">
	<g>
		<g>
			<path class="st0" d="M8.89,6.68c0,0.55-0.1,1.02-0.29,1.41s-0.45,0.7-0.79,0.94C7.48,9.27,7.09,9.45,6.65,9.56
				S5.73,9.73,5.22,9.73v1.91H2.66v-8h2.56c0.51,0,0.99,0.06,1.43,0.17C7.09,3.92,7.48,4.1,7.81,4.34C8.14,4.58,8.4,4.89,8.6,5.28
				C8.79,5.65,8.89,6.13,8.89,6.68z M5.22,7.56h0.11c0.34,0,0.58-0.08,0.73-0.23c0.15-0.16,0.22-0.37,0.22-0.65
				c0-0.28-0.07-0.5-0.22-0.65C5.91,5.87,5.67,5.8,5.33,5.8H5.22V7.56z"/>
			<path class="st0" d="M12.76,11.84c-0.5,0-0.96-0.06-1.37-0.19c-0.41-0.13-0.76-0.32-1.04-0.58c-0.29-0.26-0.51-0.58-0.67-0.97
				S9.45,9.25,9.45,8.72V3.63h2.56v4.98c0,0.28,0.06,0.49,0.17,0.64c0.12,0.15,0.31,0.22,0.58,0.22s0.47-0.07,0.58-0.22
				c0.12-0.15,0.17-0.36,0.17-0.64V3.63h2.57v5.09c0,0.53-0.08,0.99-0.23,1.38c-0.16,0.39-0.38,0.72-0.67,0.97s-0.64,0.45-1.05,0.58
				C13.72,11.77,13.27,11.84,12.76,11.84z"/>
			<path class="st0" d="M16.89,3.63h2.1l2.21,3.08V3.63h2.51v8H21.6l-2.2-3.07v3.07h-2.51C16.89,11.63,16.89,3.63,16.89,3.63z"/>
			<path class="st0" d="M25.6,5.73h-1.48v-2.1h5.59v2.1h-1.48v5.9H25.6V5.73z"/>
			<path class="st0" d="M29.96,7.64c0-0.58,0.11-1.12,0.33-1.63c0.22-0.51,0.52-0.96,0.9-1.34s0.83-0.68,1.34-0.9
				s1.06-0.33,1.63-0.33s1.12,0.11,1.63,0.33c0.51,0.22,0.96,0.52,1.34,0.9s0.68,0.83,0.9,1.34s0.33,1.06,0.33,1.63
				c0,0.58-0.11,1.12-0.33,1.63c-0.22,0.51-0.52,0.96-0.9,1.34s-0.83,0.68-1.34,0.9s-1.06,0.33-1.63,0.33s-1.12-0.11-1.63-0.33
				c-0.51-0.22-0.96-0.52-1.34-0.9s-0.68-0.83-0.9-1.34C30.07,8.76,29.96,8.21,29.96,7.64z M32.48,7.64c0,0.23,0.04,0.45,0.13,0.65
				s0.21,0.38,0.36,0.53c0.15,0.15,0.33,0.27,0.53,0.36c0.2,0.09,0.42,0.13,0.65,0.13s0.45-0.04,0.65-0.13s0.38-0.21,0.53-0.36
				c0.15-0.15,0.27-0.33,0.36-0.53c0.09-0.2,0.13-0.42,0.13-0.65c0-0.23-0.04-0.45-0.13-0.65s-0.21-0.38-0.36-0.53
				C35.18,6.31,35,6.19,34.8,6.1c-0.2-0.09-0.42-0.13-0.65-0.13S33.7,6.01,33.5,6.1s-0.38,0.21-0.53,0.36
				c-0.15,0.15-0.27,0.33-0.36,0.53C32.52,7.19,32.48,7.4,32.48,7.64z"/>
			<path class="st1" d="M39.02,3.63h2.1l2.21,3.08V3.63h2.51v8h-2.11l-2.2-3.07v3.07h-2.51C39.02,11.63,39.02,3.63,39.02,3.63z"/>
			<path class="st1" d="M46.68,3.63h4.72v2.1h-2.16v0.89h2.12v1.99h-2.12v0.92h2.24v2.1h-4.8C46.68,11.63,46.68,3.63,46.68,3.63z"/>
			<path class="st1" d="M52.2,3.63h2.11L56.4,6.7l2.08-3.07h2.11v8h-2.56V8.75l-1.63,2.4l-1.64-2.4v2.88H52.2V3.63z"/>
			<path class="st1" d="M61.24,7.64c0-0.58,0.11-1.12,0.33-1.63c0.22-0.51,0.52-0.96,0.9-1.34c0.38-0.38,0.83-0.68,1.34-0.9
				c0.51-0.22,1.06-0.33,1.63-0.33s1.12,0.11,1.63,0.33c0.51,0.22,0.96,0.52,1.34,0.9s0.68,0.83,0.9,1.34s0.33,1.06,0.33,1.63
				c0,0.58-0.11,1.12-0.33,1.63c-0.22,0.51-0.52,0.96-0.9,1.34c-0.38,0.38-0.83,0.68-1.34,0.9c-0.51,0.22-1.06,0.33-1.63,0.33
				s-1.12-0.11-1.63-0.33c-0.51-0.22-0.96-0.52-1.34-0.9s-0.68-0.83-0.9-1.34C61.35,8.76,61.24,8.21,61.24,7.64z M63.76,7.64
				c0,0.23,0.04,0.45,0.13,0.65s0.21,0.38,0.36,0.53c0.15,0.15,0.33,0.27,0.53,0.36s0.42,0.13,0.65,0.13s0.45-0.04,0.65-0.13
				c0.2-0.09,0.38-0.21,0.53-0.36s0.27-0.33,0.36-0.53c0.09-0.2,0.13-0.42,0.13-0.65c0-0.23-0.04-0.45-0.13-0.65
				s-0.21-0.38-0.36-0.53c-0.15-0.15-0.33-0.27-0.53-0.36s-0.42-0.13-0.65-0.13s-0.45,0.04-0.65,0.13s-0.38,0.21-0.53,0.36
				s-0.27,0.33-0.36,0.53C63.81,7.19,63.76,7.4,63.76,7.64z"/>
		</g>
		<path class="st2" d="M72.24,6.73c-0.35-2.66-2.3-4.94-4.82-5.62c-2.45-0.66-4.95-0.07-6.65,1.56c0.46,0.09,0.82,0.48,0.82,0.96
			v0.66c0.63-0.73,1.47-1.3,2.47-1.57c2.97-0.79,5.93,1.03,6.49,3.97c0.2,1.06,0.02,2.03-0.4,2.98c-1.18,2.67-2.84,5.05-4.69,7.41
			c-0.66-0.9-1.28-1.72-1.87-2.57c-0.73-1.06-1.4-2.14-2.01-3.26v0.39c0,0.55-0.45,1-1,1h-0.19c1.21,2.16,2.69,4.14,4.24,6.08
			c0.48,0.59,1.22,0.59,1.69-0.01c1.93-2.44,3.75-4.97,5.11-7.78c0.51-1.05,0.87-2.16,0.91-3.4C72.31,7.3,72.28,7.01,72.24,6.73z"/>
		<path class="st3" d="M64.6,7.64c0,0.12,0.02,0.23,0.07,0.33c0.04,0.1,0.1,0.19,0.18,0.27s0.17,0.14,0.27,0.18s0.21,0.07,0.33,0.07
			s0.23-0.02,0.33-0.07c0.1-0.04,0.19-0.1,0.27-0.18c0.08-0.08,0.14-0.17,0.18-0.27c0.04-0.1,0.07-0.21,0.07-0.33
			c0-0.12-0.02-0.22-0.07-0.33c-0.04-0.1-0.1-0.19-0.18-0.27s-0.17-0.14-0.27-0.18s-0.21-0.07-0.33-0.07s-0.22,0.02-0.33,0.07
			s-0.19,0.1-0.27,0.18c-0.08,0.08-0.14,0.17-0.18,0.27S64.6,7.52,64.6,7.64z"/>
	</g>
</g>
</svg>
