<?xml version="1.0" encoding="utf-8"?>
<!-- Generator: Adobe Illustrator 26.5.0, SVG Export Plug-In . SVG Version: 6.00 Build 0)  -->
<svg version="1.1" id="Capa_1" xmlns="http://www.w3.org/2000/svg" xmlns:xlink="http://www.w3.org/1999/xlink" x="0px" y="0px"
	 viewBox="0 0 56.7 39.7" style="enable-background:new 0 0 56.7 39.7;" xml:space="preserve">
<style type="text/css">
	.st0{fill:#FFFFFF;}
</style>
<g id="Capa_1_00000151511879291947271660000015567244191557878667_">
</g>
<g id="Capa_2_00000103258254279717814900000005994090198596636549_">
	<g>
		<g>
			<path class="st0" d="M3.3,12.7h3.1l3.3,4.6v-4.6h3.8v12h-3.2l-3.3-4.6v4.6H3.3V12.7z"/>
			<path class="st0" d="M14.8,12.7h7.1v3.2h-3.2v1.3h3.2v3h-3.2v1.4H22v3.2h-7.2L14.8,12.7L14.8,12.7z"/>
			<path class="st0" d="M23.1,12.7h3.2l3.1,4.6l3.1-4.6h3.2v12h-3.8v-4.3L29.4,24l-2.5-3.6v4.3h-3.8L23.1,12.7L23.1,12.7z"/>
			<path class="st0" d="M36.7,18.7c0-0.9,0.2-1.7,0.5-2.5c0.3-0.8,0.8-1.4,1.3-2s1.2-1,2-1.3c0.8-0.3,1.6-0.5,2.4-0.5
				s1.7,0.2,2.4,0.5s1.4,0.8,2,1.3s1,1.2,1.3,2c0.3,0.8,0.5,1.6,0.5,2.5c0,0.9-0.2,1.7-0.5,2.5s-0.8,1.4-1.3,2s-1.2,1-2,1.3
				C44.7,24.8,43.9,25,43,25s-1.7-0.2-2.5-0.5s-1.4-0.8-2-1.3s-1-1.2-1.3-2C36.9,20.4,36.7,19.6,36.7,18.7z M40.5,18.7
				c0,0.3,0.1,0.7,0.2,1c0.1,0.3,0.3,0.6,0.5,0.8s0.5,0.4,0.8,0.5c0.3,0.1,0.6,0.2,1,0.2s0.7-0.1,1-0.2c0.3-0.1,0.6-0.3,0.8-0.5
				s0.4-0.5,0.5-0.8c0.1-0.3,0.2-0.6,0.2-1s-0.1-0.7-0.2-1s-0.3-0.6-0.5-0.8s-0.5-0.4-0.8-0.5c-0.3-0.1-0.6-0.2-1-0.2
				s-0.7,0.1-1,0.2s-0.6,0.3-0.8,0.5s-0.4,0.5-0.5,0.8C40.5,18,40.5,18.3,40.5,18.7z"/>
		</g>
		<path class="st0" d="M53.2,17.3c-0.5-4-3.5-7.4-7.2-8.4c-3.7-1-7.4-0.1-10,2.3c0.7,0.1,1.2,0.7,1.2,1.5v1c1-1.1,2.2-2,3.7-2.3
			c4.5-1.2,8.9,1.5,9.7,6c0.3,1.6,0,3-0.6,4.5c-1.8,4-4.3,7.6-7,11.1c-1-1.3-1.9-2.6-2.8-3.9c-1.1-1.6-2.1-3.2-3-4.9v0.6
			c0,0.8-0.7,1.5-1.5,1.5h-0.3c1.8,3.2,4,6.2,6.4,9.1c0.7,0.9,1.8,0.9,2.5,0c2.9-3.7,5.6-7.5,7.7-11.7c0.8-1.6,1.3-3.2,1.4-5.1
			C53.3,18.2,53.3,17.8,53.2,17.3z"/>
		<path class="st0" d="M41.7,18.7c0,0.2,0,0.3,0.1,0.5s0.2,0.3,0.3,0.4s0.2,0.2,0.4,0.3s0.3,0.1,0.5,0.1s0.3,0,0.5-0.1
			s0.3-0.2,0.4-0.3s0.2-0.2,0.3-0.4s0.1-0.3,0.1-0.5c0-0.2,0-0.3-0.1-0.5s-0.2-0.3-0.3-0.4c-0.1-0.1-0.2-0.2-0.4-0.3
			s-0.3-0.1-0.5-0.1s-0.3,0-0.5,0.1s-0.3,0.2-0.4,0.3s-0.2,0.2-0.3,0.4C41.8,18.4,41.7,18.5,41.7,18.7z"/>
		<path class="st0" d="M9.1,6.7c0,0.5-0.1,1-0.3,1.3C8.7,8.4,8.4,8.7,8.1,8.9C7.8,9.1,7.4,9.3,7,9.4C6.6,9.5,6.2,9.5,5.7,9.5v1.8
			H3.3V3.9h2.4c0.5,0,0.9,0,1.3,0.2c0.4,0.1,0.8,0.3,1.1,0.5S8.7,5,8.8,5.4C9,5.8,9.1,6.2,9.1,6.7z M5.7,7.5h0.1
			c0.3,0,0.5-0.1,0.7-0.2C6.6,7.2,6.7,7,6.7,6.7c0-0.3-0.1-0.5-0.2-0.6S6.1,5.9,5.8,5.9H5.7V7.5z"/>
		<path class="st0" d="M12.7,11.5c-0.5,0-0.9-0.1-1.3-0.2c-0.4-0.1-0.7-0.3-1-0.5c-0.3-0.2-0.5-0.5-0.6-0.9C9.7,9.5,9.6,9.1,9.6,8.6
			V3.9H12v4.6c0,0.3,0,0.5,0.2,0.6c0.1,0.1,0.3,0.2,0.5,0.2s0.4-0.1,0.5-0.2c0.1-0.1,0.2-0.3,0.2-0.6V3.9h2.4v4.7
			c0,0.5-0.1,0.9-0.2,1.3c-0.1,0.4-0.3,0.7-0.6,0.9s-0.6,0.4-1,0.5C13.6,11.4,13.2,11.5,12.7,11.5z"/>
		<path class="st0" d="M16.5,3.9h1.9l2,2.8V3.9h2.3v7.4h-2l-2-2.8v2.8h-2.3V3.9z"/>
		<path class="st0" d="M24.6,5.8h-1.4V3.9h5.2v1.9H27v5.5h-2.4L24.6,5.8L24.6,5.8z"/>
		<path class="st0" d="M28.6,7.6c0-0.5,0.1-1,0.3-1.5c0.2-0.5,0.5-0.9,0.8-1.2C30.1,4.5,30.5,4.2,31,4c0.5-0.2,1-0.3,1.5-0.3
			c0.5,0,1,0.1,1.5,0.3c0.5,0.2,0.9,0.5,1.2,0.8c0.3,0.3,0.6,0.8,0.8,1.2c0.2,0.5,0.3,1,0.3,1.5s-0.1,1-0.3,1.5
			c-0.2,0.5-0.5,0.9-0.8,1.2c-0.3,0.3-0.8,0.6-1.2,0.8c-0.5,0.2-1,0.3-1.5,0.3c-0.5,0-1-0.1-1.5-0.3c-0.5-0.2-0.9-0.5-1.2-0.8
			c-0.3-0.3-0.6-0.8-0.8-1.2C28.7,8.6,28.6,8.1,28.6,7.6z M30.9,7.6c0,0.2,0,0.4,0.1,0.6c0.1,0.2,0.2,0.3,0.3,0.5
			c0.1,0.1,0.3,0.2,0.5,0.3c0.2,0.1,0.4,0.1,0.6,0.1s0.4,0,0.6-0.1c0.2-0.1,0.3-0.2,0.5-0.3c0.1-0.1,0.2-0.3,0.3-0.5
			C34,8,34,7.8,34,7.6c0-0.2,0-0.4-0.1-0.6c-0.1-0.2-0.2-0.3-0.3-0.5c-0.1-0.1-0.3-0.2-0.5-0.3c-0.2-0.1-0.4-0.1-0.6-0.1
			c-0.2,0-0.4,0-0.6,0.1c-0.2,0.1-0.3,0.2-0.5,0.3C31.2,6.6,31.1,6.8,31,7C31,7.2,30.9,7.4,30.9,7.6z"/>
	</g>
</g>
</svg>
