<?xml version="1.0" encoding="utf-8"?>
<!-- Generator: Adobe Illustrator 26.5.0, SVG Export Plug-In . SVG Version: 6.00 Build 0)  -->
<svg version="1.1" xmlns="http://www.w3.org/2000/svg" xmlns:xlink="http://www.w3.org/1999/xlink" x="0px" y="0px"
	 viewBox="0 0 100 100" style="enable-background:new 0 0 100 100;" xml:space="preserve">
<style type="text/css">
	.st0{fill:#FF0000;}
	.st1{fill:none;stroke:#000000;stroke-miterlimit:10;}
	.st2{stroke:#FFFFFF;stroke-miterlimit:10;}
	.st3{fill:#003366;}
	.st4{fill:#333333;}
	.st5{fill:#006666;}
	.st6{fill:#333366;}
	.st7{fill:none;stroke:#FF0000;stroke-width:3;stroke-miterlimit:10;}
	.st8{fill:none;stroke:#FF0000;stroke-width:3.0887;stroke-miterlimit:10;}
	.st9{fill:none;stroke:#FF0000;stroke-width:3.1897;stroke-miterlimit:10;}
	.st10{clip-path:url(#SVGID_00000086687723973107884040000003488727754428334992_);}
	.st11{clip-path:url(#SVGID_00000129914814361875180570000011209729656551519926_);}
	.st12{clip-path:url(#SVGID_00000174577482322102677250000013748592691981135493_);}
	.st13{opacity:0.5;fill:#191915;}
	.st14{fill:#FFFFFF;}
	.st15{fill:#00CC00;}
	.st16{fill:#999900;}
	.st17{fill:#FF0066;}
	.st18{fill:#CCCC00;}
	.st19{fill:#CC0000;}
	.st20{fill:#FFCC00;}
	.st21{fill:#6C6B6C;}
	.st22{fill:#FF6633;}
	.st23{fill:#990000;}
	.st24{fill:#E9B400;}
	.st25{fill:none;}
</style>
<g id="Capa_1">
</g>
<g id="Capa_2">
	<g>
		<g>
			<path class="st4" d="M25,42.83h3.15l3.31,4.63v-4.63h3.76v12.01h-3.17l-3.3-4.61v4.61H25V42.83z"/>
			<path class="st4" d="M36.49,42.83h7.08v3.15h-3.24v1.33h3.19v2.99h-3.19v1.39h3.37v3.15h-7.2V42.83z"/>
			<path class="st4" d="M44.77,42.83h3.17l3.13,4.61l3.11-4.61h3.17v12.01h-3.84v-4.32l-2.45,3.6l-2.47-3.6v4.32h-3.84V42.83z"/>
			<path class="st4" d="M58.35,48.84c0-0.86,0.16-1.68,0.49-2.45c0.33-0.77,0.78-1.44,1.35-2.01c0.57-0.57,1.24-1.02,2.01-1.35
				c0.77-0.33,1.58-0.49,2.45-0.49s1.68,0.16,2.45,0.49c0.77,0.33,1.44,0.78,2.01,1.35c0.57,0.57,1.02,1.24,1.35,2.01
				c0.33,0.77,0.5,1.58,0.5,2.45c0,0.86-0.17,1.68-0.5,2.45c-0.33,0.77-0.78,1.44-1.35,2.01c-0.57,0.57-1.24,1.02-2.01,1.35
				c-0.77,0.33-1.58,0.5-2.45,0.5s-1.68-0.17-2.45-0.5c-0.77-0.33-1.44-0.78-2.01-1.35c-0.57-0.57-1.02-1.24-1.35-2.01
				C58.51,50.53,58.35,49.71,58.35,48.84z M62.13,48.84c0,0.35,0.07,0.68,0.2,0.98c0.13,0.31,0.31,0.57,0.54,0.8
				c0.23,0.23,0.5,0.41,0.8,0.54c0.31,0.13,0.63,0.2,0.98,0.2s0.68-0.07,0.98-0.2c0.31-0.13,0.57-0.31,0.8-0.54
				c0.23-0.23,0.41-0.5,0.54-0.8c0.13-0.31,0.2-0.63,0.2-0.98c0-0.35-0.07-0.67-0.2-0.98c-0.13-0.31-0.31-0.57-0.54-0.8
				c-0.23-0.23-0.5-0.41-0.8-0.54c-0.31-0.13-0.63-0.2-0.98-0.2s-0.67,0.07-0.98,0.2c-0.31,0.13-0.57,0.31-0.8,0.54
				c-0.23,0.23-0.41,0.5-0.54,0.8C62.2,48.17,62.13,48.5,62.13,48.84z"/>
		</g>
		<path class="st22" d="M74.86,47.48c-0.52-3.99-3.46-7.41-7.24-8.43c-3.68-0.99-7.43-0.1-9.98,2.34c0.69,0.13,1.23,0.71,1.23,1.45
			v0.99c0.95-1.1,2.21-1.96,3.7-2.35c4.46-1.19,8.89,1.54,9.74,5.95c0.31,1.59,0.03,3.05-0.6,4.47c-1.78,4.01-4.27,7.57-7.03,11.12
			c-0.98-1.35-1.92-2.58-2.8-3.86c-1.09-1.58-2.1-3.21-3.01-4.9v0.59c0,0.83-0.67,1.5-1.5,1.5h-0.29c1.82,3.24,4.03,6.22,6.36,9.13
			c0.71,0.89,1.83,0.88,2.53-0.01c2.9-3.67,5.62-7.45,7.67-11.68c0.77-1.58,1.31-3.24,1.37-5.11
			C74.96,48.33,74.91,47.91,74.86,47.48z"/>
		<path class="st19" d="M63.39,48.84c0,0.17,0.03,0.34,0.1,0.49c0.07,0.15,0.16,0.29,0.27,0.4c0.11,0.11,0.25,0.2,0.4,0.27
			c0.15,0.07,0.32,0.1,0.49,0.1s0.34-0.03,0.49-0.1c0.15-0.07,0.29-0.16,0.4-0.27c0.11-0.11,0.2-0.25,0.27-0.4
			c0.07-0.15,0.1-0.32,0.1-0.49c0-0.17-0.03-0.34-0.1-0.49c-0.07-0.15-0.16-0.29-0.27-0.4c-0.11-0.11-0.25-0.2-0.4-0.27
			c-0.15-0.07-0.32-0.1-0.49-0.1s-0.34,0.03-0.49,0.1s-0.29,0.16-0.4,0.27c-0.11,0.11-0.2,0.25-0.27,0.4
			C63.42,48.51,63.39,48.67,63.39,48.84z"/>
		<path class="st21" d="M30.76,36.86c0,0.51-0.09,0.95-0.27,1.3c-0.18,0.36-0.42,0.65-0.73,0.87c-0.31,0.22-0.67,0.38-1.08,0.49
			c-0.41,0.1-0.85,0.16-1.33,0.16v1.76H25v-7.4h2.36c0.47,0,0.92,0.05,1.33,0.16c0.41,0.1,0.77,0.27,1.08,0.49
			c0.31,0.22,0.55,0.51,0.73,0.87C30.67,35.92,30.76,36.35,30.76,36.86z M27.36,37.69h0.1c0.31,0,0.53-0.07,0.67-0.22
			c0.14-0.14,0.21-0.35,0.21-0.61c0-0.26-0.07-0.46-0.21-0.6c-0.14-0.14-0.36-0.22-0.67-0.22h-0.1V37.69z"/>
		<path class="st21" d="M34.34,41.64c-0.47,0-0.89-0.06-1.26-0.18c-0.38-0.12-0.7-0.3-0.97-0.53c-0.27-0.24-0.47-0.54-0.62-0.9
			c-0.14-0.36-0.22-0.79-0.22-1.28v-4.7h2.36v4.61c0,0.26,0.05,0.46,0.16,0.59c0.11,0.14,0.29,0.2,0.54,0.2
			c0.25,0,0.43-0.07,0.54-0.2c0.11-0.14,0.16-0.33,0.16-0.59v-4.61h2.37v4.7c0,0.49-0.07,0.91-0.22,1.28
			c-0.14,0.36-0.35,0.66-0.62,0.9c-0.27,0.24-0.59,0.41-0.97,0.53C35.23,41.58,34.81,41.64,34.34,41.64z"/>
		<path class="st21" d="M38.16,34.05h1.94l2.04,2.85v-2.85h2.32v7.4h-1.95l-2.03-2.84v2.84h-2.32V34.05z"/>
		<path class="st21" d="M46.22,35.99h-1.36v-1.94h5.17v1.94h-1.36v5.46h-2.44V35.99z"/>
		<path class="st21" d="M50.25,37.75c0-0.53,0.1-1.04,0.3-1.51c0.2-0.47,0.48-0.89,0.83-1.24c0.35-0.35,0.76-0.63,1.24-0.83
			c0.47-0.2,0.98-0.3,1.51-0.3c0.53,0,1.04,0.1,1.51,0.3c0.47,0.2,0.89,0.48,1.24,0.83c0.35,0.35,0.63,0.76,0.83,1.24
			c0.2,0.47,0.31,0.98,0.31,1.51c0,0.53-0.1,1.04-0.31,1.51c-0.2,0.47-0.48,0.89-0.83,1.24c-0.35,0.35-0.76,0.63-1.24,0.83
			c-0.47,0.2-0.98,0.31-1.51,0.31c-0.53,0-1.04-0.1-1.51-0.31c-0.47-0.2-0.89-0.48-1.24-0.83c-0.35-0.35-0.63-0.76-0.83-1.24
			C50.35,38.79,50.25,38.29,50.25,37.75z M52.58,37.75c0,0.21,0.04,0.42,0.12,0.61c0.08,0.19,0.19,0.35,0.33,0.49
			c0.14,0.14,0.31,0.25,0.49,0.33c0.19,0.08,0.39,0.12,0.6,0.12c0.21,0,0.42-0.04,0.61-0.12c0.19-0.08,0.35-0.19,0.49-0.33
			c0.14-0.14,0.25-0.31,0.33-0.49c0.08-0.19,0.12-0.39,0.12-0.61c0-0.21-0.04-0.42-0.12-0.6c-0.08-0.19-0.19-0.35-0.33-0.49
			c-0.14-0.14-0.31-0.25-0.49-0.33c-0.19-0.08-0.39-0.12-0.61-0.12c-0.21,0-0.42,0.04-0.6,0.12c-0.19,0.08-0.35,0.19-0.49,0.33
			c-0.14,0.14-0.25,0.31-0.33,0.49C52.62,37.34,52.58,37.54,52.58,37.75z"/>
	</g>
</g>
</svg>
