<?xml version="1.0" encoding="utf-8"?>
<!-- Generator: Adobe Illustrator 26.5.0, SVG Export Plug-In . SVG Version: 6.00 Build 0)  -->
<svg version="1.1" xmlns="http://www.w3.org/2000/svg" xmlns:xlink="http://www.w3.org/1999/xlink" x="0px" y="0px"
	 viewBox="0 0 100 100" style="enable-background:new 0 0 100 100;" xml:space="preserve">
<style type="text/css">
	.st0{fill:#FF0000;}
	.st1{fill:none;stroke:#000000;stroke-miterlimit:10;}
	.st2{stroke:#FFFFFF;stroke-miterlimit:10;}
	.st3{fill:#003366;}
	.st4{fill:#333333;}
	.st5{fill:#006666;}
	.st6{fill:#333366;}
	.st7{fill:none;stroke:#FF0000;stroke-width:3;stroke-miterlimit:10;}
	.st8{fill:none;stroke:#FF0000;stroke-width:3.0887;stroke-miterlimit:10;}
	.st9{fill:none;stroke:#FF0000;stroke-width:3.1897;stroke-miterlimit:10;}
	.st10{clip-path:url(#SVGID_00000168827928165985506010000015053726092003139970_);}
	.st11{clip-path:url(#SVGID_00000127024902871884266270000001186300146795887496_);}
	.st12{clip-path:url(#SVGID_00000067236831980481912410000012773780317988843963_);}
	.st13{opacity:0.5;fill:#191915;}
	.st14{fill:#FFFFFF;}
	.st15{fill:#00CC00;}
	.st16{fill:#999900;}
	.st17{fill:#FF0066;}
	.st18{fill:#CCCC00;}
	.st19{fill:#CC0000;}
	.st20{fill:#FFCC00;}
	.st21{fill:#6C6B6C;}
	.st22{fill:#FF6633;}
	.st23{fill:#990000;}
	.st24{fill:#E9B400;}
	.st25{fill:none;}
</style>
<g id="Capa_1">
</g>
<g id="Capa_2">
	<g>
		<g>
			<path class="st21" d="M21.39,46.68c0,0.55-0.1,1.02-0.29,1.41s-0.45,0.7-0.79,0.94c-0.33,0.24-0.72,0.42-1.16,0.53
				c-0.44,0.11-0.92,0.17-1.43,0.17v1.91h-2.56v-8h2.56c0.51,0,0.99,0.06,1.43,0.17c0.44,0.11,0.83,0.29,1.16,0.53
				c0.33,0.24,0.59,0.55,0.79,0.94C21.29,45.65,21.39,46.13,21.39,46.68z M17.72,47.56h0.11c0.34,0,0.58-0.08,0.73-0.23
				c0.15-0.16,0.22-0.37,0.22-0.65c0-0.28-0.07-0.5-0.22-0.65c-0.15-0.16-0.39-0.23-0.73-0.23h-0.11V47.56z"/>
			<path class="st21" d="M25.26,51.84c-0.5,0-0.96-0.06-1.37-0.19c-0.41-0.13-0.76-0.32-1.04-0.58c-0.29-0.26-0.51-0.58-0.67-0.97
				c-0.16-0.39-0.23-0.85-0.23-1.38v-5.09h2.56v4.98c0,0.28,0.06,0.49,0.17,0.64c0.12,0.15,0.31,0.22,0.58,0.22s0.47-0.07,0.58-0.22
				c0.12-0.15,0.17-0.36,0.17-0.64v-4.98h2.57v5.09c0,0.53-0.08,0.99-0.23,1.38c-0.16,0.39-0.38,0.72-0.67,0.97
				s-0.64,0.45-1.05,0.58C26.22,51.77,25.77,51.84,25.26,51.84z"/>
			<path class="st21" d="M29.39,43.63h2.1l2.21,3.08v-3.08h2.51v8H34.1l-2.2-3.07v3.07h-2.51V43.63z"/>
			<path class="st21" d="M38.1,45.73h-1.48v-2.1h5.59v2.1h-1.48v5.9H38.1V45.73z"/>
			<path class="st21" d="M42.46,47.64c0-0.58,0.11-1.12,0.33-1.63c0.22-0.51,0.52-0.96,0.9-1.34c0.38-0.38,0.83-0.68,1.34-0.9
				c0.51-0.22,1.06-0.33,1.63-0.33s1.12,0.11,1.63,0.33c0.51,0.22,0.96,0.52,1.34,0.9c0.38,0.38,0.68,0.83,0.9,1.34
				c0.22,0.51,0.33,1.06,0.33,1.63c0,0.58-0.11,1.12-0.33,1.63c-0.22,0.51-0.52,0.96-0.9,1.34c-0.38,0.38-0.83,0.68-1.34,0.9
				c-0.51,0.22-1.06,0.33-1.63,0.33s-1.12-0.11-1.63-0.33c-0.51-0.22-0.96-0.52-1.34-0.9c-0.38-0.38-0.68-0.83-0.9-1.34
				C42.57,48.76,42.46,48.21,42.46,47.64z M44.98,47.64c0,0.23,0.04,0.45,0.13,0.65c0.09,0.2,0.21,0.38,0.36,0.53
				c0.15,0.15,0.33,0.27,0.53,0.36c0.2,0.09,0.42,0.13,0.65,0.13s0.45-0.04,0.65-0.13c0.2-0.09,0.38-0.21,0.53-0.36
				c0.15-0.15,0.27-0.33,0.36-0.53c0.09-0.2,0.13-0.42,0.13-0.65c0-0.23-0.04-0.45-0.13-0.65c-0.09-0.2-0.21-0.38-0.36-0.53
				c-0.15-0.15-0.33-0.27-0.53-0.36c-0.2-0.09-0.42-0.13-0.65-0.13s-0.45,0.04-0.65,0.13s-0.38,0.21-0.53,0.36
				c-0.15,0.15-0.27,0.33-0.36,0.53C45.02,47.19,44.98,47.4,44.98,47.64z"/>
			<path class="st4" d="M51.52,43.63h2.1l2.21,3.08v-3.08h2.51v8h-2.11l-2.2-3.07v3.07h-2.51V43.63z"/>
			<path class="st4" d="M59.18,43.63h4.72v2.1h-2.16v0.89h2.12v1.99h-2.12v0.92h2.24v2.1h-4.8V43.63z"/>
			<path class="st4" d="M64.7,43.63h2.11l2.09,3.07l2.08-3.07h2.11v8h-2.56v-2.88l-1.63,2.4l-1.64-2.4v2.88H64.7V43.63z"/>
			<path class="st4" d="M73.74,47.64c0-0.58,0.11-1.12,0.33-1.63c0.22-0.51,0.52-0.96,0.9-1.34c0.38-0.38,0.83-0.68,1.34-0.9
				c0.51-0.22,1.06-0.33,1.63-0.33s1.12,0.11,1.63,0.33c0.51,0.22,0.96,0.52,1.34,0.9c0.38,0.38,0.68,0.83,0.9,1.34
				c0.22,0.51,0.33,1.06,0.33,1.63c0,0.58-0.11,1.12-0.33,1.63c-0.22,0.51-0.52,0.96-0.9,1.34c-0.38,0.38-0.83,0.68-1.34,0.9
				c-0.51,0.22-1.06,0.33-1.63,0.33s-1.12-0.11-1.63-0.33c-0.51-0.22-0.96-0.52-1.34-0.9c-0.38-0.38-0.68-0.83-0.9-1.34
				C73.85,48.76,73.74,48.21,73.74,47.64z M76.26,47.64c0,0.23,0.04,0.45,0.13,0.65c0.09,0.2,0.21,0.38,0.36,0.53
				c0.15,0.15,0.33,0.27,0.53,0.36c0.2,0.09,0.42,0.13,0.65,0.13s0.45-0.04,0.65-0.13c0.2-0.09,0.38-0.21,0.53-0.36
				c0.15-0.15,0.27-0.33,0.36-0.53c0.09-0.2,0.13-0.42,0.13-0.65c0-0.23-0.04-0.45-0.13-0.65c-0.09-0.2-0.21-0.38-0.36-0.53
				c-0.15-0.15-0.33-0.27-0.53-0.36c-0.2-0.09-0.42-0.13-0.65-0.13s-0.45,0.04-0.65,0.13s-0.38,0.21-0.53,0.36
				c-0.15,0.15-0.27,0.33-0.36,0.53C76.31,47.19,76.26,47.4,76.26,47.64z"/>
		</g>
		<path class="st22" d="M84.74,46.73c-0.35-2.66-2.3-4.94-4.82-5.62c-2.45-0.66-4.95-0.07-6.65,1.56c0.46,0.09,0.82,0.48,0.82,0.96
			v0.66c0.63-0.73,1.47-1.3,2.47-1.57c2.97-0.79,5.93,1.03,6.49,3.97c0.2,1.06,0.02,2.03-0.4,2.98c-1.18,2.67-2.84,5.05-4.69,7.41
			c-0.66-0.9-1.28-1.72-1.87-2.57c-0.73-1.06-1.4-2.14-2.01-3.26v0.39c0,0.55-0.45,1-1,1h-0.19c1.21,2.16,2.69,4.14,4.24,6.08
			c0.48,0.59,1.22,0.59,1.69-0.01c1.93-2.44,3.75-4.97,5.11-7.78c0.51-1.05,0.87-2.16,0.91-3.4C84.81,47.3,84.78,47.01,84.74,46.73z
			"/>
		<path class="st19" d="M77.1,47.64c0,0.12,0.02,0.23,0.07,0.33c0.04,0.1,0.1,0.19,0.18,0.27c0.08,0.08,0.17,0.14,0.27,0.18
			c0.1,0.04,0.21,0.07,0.33,0.07s0.23-0.02,0.33-0.07c0.1-0.04,0.19-0.1,0.27-0.18c0.08-0.08,0.14-0.17,0.18-0.27
			c0.04-0.1,0.07-0.21,0.07-0.33c0-0.12-0.02-0.22-0.07-0.33c-0.04-0.1-0.1-0.19-0.18-0.27c-0.08-0.08-0.17-0.14-0.27-0.18
			c-0.1-0.04-0.21-0.07-0.33-0.07s-0.22,0.02-0.33,0.07s-0.19,0.1-0.27,0.18c-0.08,0.08-0.14,0.17-0.18,0.27
			C77.13,47.41,77.1,47.52,77.1,47.64z"/>
	</g>
</g>
</svg>
